<svg id="Layer_1" data-name="Layer 1" xmlns="http://www.w3.org/2000/svg" xmlns:xlink="http://www.w3.org/1999/xlink" viewBox="0 0 140 30"><defs><style>.cls-1{fill:url(#linear-gradient);}.cls-2{fill:url(#linear-gradient-2);}.cls-3{fill:url(#linear-gradient-3);}.cls-4{fill:url(#linear-gradient-4);}.cls-5{fill:url(#linear-gradient-5);}.cls-6{fill:url(#linear-gradient-6);}.cls-7{fill:url(#linear-gradient-7);}.cls-8{fill:url(#linear-gradient-8);}.cls-9{fill:url(#linear-gradient-9);}.cls-10{fill:url(#linear-gradient-10);}.cls-11{fill:url(#linear-gradient-11);}.cls-12{fill:url(#linear-gradient-12);}</style><linearGradient id="linear-gradient" x1="120.14" y1="-28.92" x2="58.08" y2="4.91" gradientUnits="userSpaceOnUse"><stop offset="0" stop-color="#2560ac"/><stop offset="1" stop-color="#2c3f5d"/></linearGradient><linearGradient id="linear-gradient-2" x1="123.17" y1="-23.36" x2="61.11" y2="10.47" xlink:href="#linear-gradient"/><linearGradient id="linear-gradient-3" x1="128.05" y1="-14.4" x2="65.99" y2="19.42" xlink:href="#linear-gradient"/><linearGradient id="linear-gradient-4" x1="132.22" y1="-6.74" x2="70.17" y2="27.08" xlink:href="#linear-gradient"/><linearGradient id="linear-gradient-5" x1="136.13" y1="0.43" x2="74.07" y2="34.25" xlink:href="#linear-gradient"/><linearGradient id="linear-gradient-6" x1="140.91" y1="9.2" x2="78.85" y2="43.02" xlink:href="#linear-gradient"/><linearGradient id="linear-gradient-7" x1="10.21" y1="38.59" x2="18.31" y2="23.78" gradientUnits="userSpaceOnUse"><stop offset="0" stop-color="#2c3f5d"/><stop offset="1" stop-color="#2560ac"/></linearGradient><linearGradient id="linear-gradient-8" x1="14.72" y1="40.53" x2="22.65" y2="26.01" gradientUnits="userSpaceOnUse"><stop offset="0.03" stop-color="#eb7d24"/><stop offset="0.37" stop-color="#dc2529"/><stop offset="0.99" stop-color="#b92531"/></linearGradient><linearGradient id="linear-gradient-9" x1="6.28" y1="35.92" x2="14.21" y2="21.4" xlink:href="#linear-gradient-7"/><linearGradient id="linear-gradient-10" x1="10.55" y1="38.26" x2="18.49" y2="23.73" xlink:href="#linear-gradient-7"/><linearGradient id="linear-gradient-11" x1="5.35" y1="35.42" x2="13.28" y2="20.89" xlink:href="#linear-gradient-7"/><linearGradient id="linear-gradient-12" x1="15.89" y1="13.53" x2="4.17" y2="28.15" gradientUnits="userSpaceOnUse"><stop offset="0" stop-color="#eb7d24"/><stop offset="0.43" stop-color="#dc2529"/><stop offset="0.63" stop-color="#741945"/><stop offset="0.82" stop-color="#811a42"/><stop offset="0.99" stop-color="#e82128"/></linearGradient></defs><title>Qavenue inside app logo 140x30</title><path class="cls-1" d="M44.65,8.29V22.91H39.91V20.54a6.66,6.66,0,0,1-2.28,2.22,5.88,5.88,0,0,1-3,.71A5.76,5.76,0,0,1,30,21.34a8.73,8.73,0,0,1-1.75-5.73,8.36,8.36,0,0,1,1.83-5.68A6.22,6.22,0,0,1,35,7.82a5.53,5.53,0,0,1,2.85.71,5.77,5.77,0,0,1,2,2.16V8.29Zm-4.53,7.29a3.83,3.83,0,0,0-.92-2.7,3.6,3.6,0,0,0-5,0,3.89,3.89,0,0,0-.9,2.71,3.82,3.82,0,0,0,.91,2.7,3.63,3.63,0,0,0,5,0A3.83,3.83,0,0,0,40.12,15.58Z"/><path class="cls-2" d="M53,22.91,46.39,8.29h5.5l2.49,6.45.1.25a10.14,10.14,0,0,1,.59,2,9.53,9.53,0,0,1,.57-1.9l.14-.39,2.49-6.45h5.37L57,22.91Z"/><path class="cls-3" d="M80.42,16.63H69.3a3.73,3.73,0,0,0,.87,2.61,3.16,3.16,0,0,0,2.42.92,4.14,4.14,0,0,0,2-.44,2.93,2.93,0,0,0,1.22-1.31L79.67,20a5,5,0,0,1-2.46,2.59,9.34,9.34,0,0,1-4.33.91,8.68,8.68,0,0,1-6.13-2.12,7.23,7.23,0,0,1-2.31-5.59,7.62,7.62,0,0,1,2.31-5.68,8,8,0,0,1,5.84-2.26,7.4,7.4,0,0,1,5.73,2.29,8.93,8.93,0,0,1,2.1,6.27Zm-5.08-2.91a3.08,3.08,0,0,0-1-2,2.77,2.77,0,0,0-2-.76,2.85,2.85,0,0,0-2,.69,3.6,3.6,0,0,0-1,2.07Z"/><path class="cls-4" d="M83.38,22.91V8.29H88.1v3a7.11,7.11,0,0,1,2.37-2.6,6.09,6.09,0,0,1,3.23-.83,6.67,6.67,0,0,1,2.53.46A4.38,4.38,0,0,1,98,9.59a4.55,4.55,0,0,1,.83,1.79,15.44,15.44,0,0,1,.24,3.16v8.37H93.93V15.08a4.45,4.45,0,0,0-.57-2.55,2.1,2.1,0,0,0-1.83-.8,2.58,2.58,0,0,0-2.35,1.19,7.6,7.6,0,0,0-.73,3.85v6.14Z"/><path class="cls-5" d="M117.74,8.29v7.47a12.67,12.67,0,0,1-.4,3.67A5.38,5.38,0,0,1,116,21.55,6.08,6.08,0,0,1,113.58,23a10.87,10.87,0,0,1-3.4.47A10.7,10.7,0,0,1,106.8,23a6.45,6.45,0,0,1-2.46-1.45A5.06,5.06,0,0,1,103,19.44a12.82,12.82,0,0,1-.39-3.68V8.29h4.92v7.8a4.57,4.57,0,0,0,.61,2.66,2.8,2.8,0,0,0,3.95,0,4.53,4.53,0,0,0,.6-2.67V8.29Z"/><path class="cls-6" d="M136.6,16.63H125.48a3.73,3.73,0,0,0,.87,2.61,3.16,3.16,0,0,0,2.42.92,4.07,4.07,0,0,0,2-.44A2.89,2.89,0,0,0,132,18.41L135.85,20a5.11,5.11,0,0,1-2.46,2.59,9.34,9.34,0,0,1-4.33.91,8.68,8.68,0,0,1-6.13-2.12,7.23,7.23,0,0,1-2.31-5.59,7.62,7.62,0,0,1,2.31-5.68,8,8,0,0,1,5.84-2.26,7.41,7.41,0,0,1,5.73,2.29,8.93,8.93,0,0,1,2.1,6.27Zm-5.08-2.91a3.13,3.13,0,0,0-1-2,2.8,2.8,0,0,0-2-.76,2.83,2.83,0,0,0-2,.69,3.54,3.54,0,0,0-1,2.07Z"/><rect class="cls-7" x="18.94" y="17.54" width="4.76" height="1.46" rx="0.65"/><path class="cls-8" d="M32,24.75a3.62,3.62,0,0,1-4.48.36,3.25,3.25,0,0,1-1-.85l-6.9-8.46,1.22-1.51,7.54,9.37S30.59,25.53,32,24.75Z"/><path class="cls-9" d="M20.91,14.29,19.78,15.7h0s-3.93,5.45-6.67,2.58a2,2,0,0,0,2.73-.66l4-4.62Z"/><path class="cls-10" d="M20.52,20.18a6.14,6.14,0,0,1-.43.45A1.83,1.83,0,0,1,20.52,20.18Z"/><path class="cls-11" d="M26.06,15v.21a1.8,1.8,0,0,1-3.56,0V14.7A7.78,7.78,0,0,0,10.09,8.76a20.7,20.7,0,0,1,8.74-4.33,11.35,11.35,0,0,1,7.23,10.31Z"/><path class="cls-12" d="M23.38,21.64A1.8,1.8,0,0,1,23,22.79h0l-.2.2A11.32,11.32,0,1,1,18.83,4.43a20.7,20.7,0,0,0-8.74,4.33A8.15,8.15,0,0,0,8.81,10,7.77,7.77,0,0,0,20.09,20.63a6.14,6.14,0,0,0,.43-.45,1.83,1.83,0,0,1,1.06-.34A1.81,1.81,0,0,1,23.38,21.64Z"/></svg>